<?xml version="1.0" ?><svg height="50px" id="Слой_1" style="enable-background:new 0 0 50 50;" version="1.1" viewBox="0 0 50 50" width="50px" xml:space="preserve" xmlns="http://www.w3.org/2000/svg" xmlns:xlink="http://www.w3.org/1999/xlink"><style type="text/css">
	.st0{fill:#374163;}
</style><g><path class="st0" d="M25.00092,49.94559C11.215,49.94559,0,38.73059,0,24.94652C0,11.22146,11.215,0.05441,25.00092,0.05441   C38.785,0.05441,50,11.22146,50,24.94652C50,38.73059,38.785,49.94559,25.00092,49.94559z M25.00092,4.6577   c-11.24636,0-20.39762,9.10147-20.39762,20.28881c0,11.24636,9.15127,20.39578,20.39762,20.39578   S45.3967,36.19287,45.3967,24.94652C45.3967,13.75918,36.24728,4.6577,25.00092,4.6577z"/><path class="st0" d="M24.25215,34.42237c-0.67316,0-1.33894-0.29324-1.79447-0.85759l-5.77994-7.17421   c-0.79672-0.99037-0.64181-2.43812,0.34857-3.23669c0.99037-0.80041,2.43997-0.63996,3.23669,0.34857l5.77994,7.17421   c0.79672,0.99037,0.64181,2.43813-0.34857,3.23669C25.26834,34.25639,24.75932,34.42237,24.25215,34.42237z"/><path class="st0" d="M24.24846,34.42237c-0.35226,0-0.71004-0.08115-1.0457-0.25267   c-1.13238-0.57726-1.58054-1.96415-1.00144-3.09653l7.28118-14.24145c0.57541-1.13054,1.9623-1.57869,3.09653-1.00144   c1.13239,0.57726,1.58054,1.96415,1.00144,3.09653l-7.28118,14.24145C25.89355,33.965,25.08576,34.42237,24.24846,34.42237z"/></g></svg>