<?xml version="1.0" ?><svg height="50px" id="Слой_1" style="enable-background:new 0 0 50 50;" version="1.1" viewBox="0 0 50 50" width="50px" xml:space="preserve" xmlns="http://www.w3.org/2000/svg" xmlns:xlink="http://www.w3.org/1999/xlink"><style type="text/css">
	.st0{fill:#374163;}
</style><g><path class="st0" d="M25,49.94468c-13.78356,0-25-11.21459-25-24.99816C0,11.22197,11.21644,0.05533,25,0.05533   s25,11.16664,25,24.89119C50,38.73008,38.78357,49.94468,25,49.94468z M25,4.65845c-11.24594,0-20.39687,9.10114-20.39687,20.28806   c0,11.24594,9.15093,20.39503,20.39687,20.39503s20.39687-9.14909,20.39687-20.39503   C45.39687,13.75959,36.24594,4.65845,25,4.65845z"/><path class="st0" d="M29.28224,27.7829c-0.69711,0-1.39053-0.3172-1.84051-0.92026c-0.7635-1.018-0.55695-2.46017,0.46105-3.22367   c1.13234-0.84833,1.86264-2.31079,1.86264-3.72529c0-2.58188-2.18353-4.76357-4.76542-4.76357s-4.76542,2.18169-4.76542,4.76357   c0,1.27066-1.02906,2.30157-2.30157,2.30157c-1.2725,0-2.30156-1.03091-2.30156-2.30157c0-5.16561,4.20109-9.3667,9.36855-9.3667   s9.36855,4.20109,9.36855,9.3667c0,2.85667-1.42004,5.6949-3.70685,7.41C30.2486,27.63352,29.76542,27.7829,29.28224,27.7829z"/><path class="st0" d="M25,31.85121c-1.2725,0-2.30156-1.03091-2.30156-2.30156c0-3.32141,2.71835-4.64923,4.17896-5.36294   c0.38359-0.18811,0.7635-0.35962,1.06595-0.57723c1.04013-0.74506,2.47123-0.49609,3.2126,0.53297   c0.73768,1.03275,0.49794,2.47123-0.53482,3.21075c-0.49425,0.35409-1.09546,0.66207-1.72248,0.96821   c-1.46061,0.71371-1.59708,0.90366-1.59708,1.22824C27.30156,30.8203,26.2725,31.85121,25,31.85121z"/><path class="st0" d="M25,39.45301c-1.2725,0-2.30156-1.03091-2.30156-2.30156v-1.39237c0-1.27066,1.02906-2.30157,2.30156-2.30157   s2.30156,1.03091,2.30156,2.30157v1.39237C27.30156,38.4221,26.2725,39.45301,25,39.45301z"/></g></svg>